<?xml version="1.0" encoding="utf-8"?>
<!-- Generator: Adobe Illustrator 25.4.1, SVG Export Plug-In . SVG Version: 6.00 Build 0)  -->
<svg version="1.1" id="Calque_1" xmlns="http://www.w3.org/2000/svg" xmlns:xlink="http://www.w3.org/1999/xlink" x="0px" y="0px"
	 viewBox="0 0 357.11 330.47" style="enable-background:new 0 0 357.11 330.47;" xml:space="preserve">
<style type="text/css">
	.st0{fill:#F8F0E7;stroke:#000000;stroke-miterlimit:10;}
	.st1{fill:#F4ACCD;}
	.st2{fill:#EE7BAE;stroke:#F8F0E7;stroke-width:0.75;stroke-miterlimit:10;}
	.st3{fill:#A48A7B;}
</style>
<rect x="-109.94" y="-63.34" class="st0" width="500.7" height="500.7"/>
<g>
	<path class="st1" d="M86.37,176.24c9.82,77.25,58.82,129.8,109.19,122.73c43.81-6.15,81.06-56.31,89.01-122.73"/>
	<path class="st2" d="M185.48,152.48c-45.72,0-99.11,11.88-99.11,23.76s53.39,23.76,99.11,23.76s99.09-11.88,99.09-23.76
		S231.2,152.48,185.48,152.48z"/>
	<g>
		<g>
			<g>
				<path class="st3" d="M244.13,189.84c-16.53,5.39-31.86,14.61-45.04,25.89c-7.02,6.01-13.46,12.7-19.04,20.07
					c-2.73,3.6-5.24,7.36-7.49,11.28c-1.96,3.42-3.52,7-5.23,10.54c-1.42,2.94-2.96,5.83-4.3,8.81c-1.3,2.88-2.66,5.95-3,9.12
					c-0.21,2,0.26,4.28,2.5,4.8c2.53,0.58,5.41-0.91,7.57-2.03c3.01-1.56,5.83-3.46,8.61-5.4c2.98-2.08,5.97-4.15,8.84-6.39
					c7.59-5.93,14.51-12.7,20.92-19.88c13.5-15.1,24.93-32.02,35.13-49.48c1.25-2.14,2.48-4.3,3.7-6.46
					c0.39-0.7-0.68-1.33-1.08-0.63c-9.6,17.07-20.26,33.65-32.72,48.78c-6.03,7.32-12.49,14.3-19.55,20.65
					c-5.68,5.11-11.81,9.63-18.15,13.88c-2.74,1.84-5.59,3.69-8.67,4.93c-1.61,0.65-4.95,1.87-5.76-0.5c-0.84-2.44,0.66-5.77,1.54-8
					c1.25-3.17,2.8-6.22,4.33-9.26c1.44-2.87,2.68-5.83,4.13-8.7c1.94-3.83,4.16-7.52,6.58-11.07c5.07-7.41,11.06-14.17,17.63-20.29
					c12.55-11.69,27.39-21.35,43.42-27.53c1.79-0.69,3.6-1.33,5.43-1.93C245.23,190.8,244.9,189.59,244.13,189.84L244.13,189.84z"/>
			</g>
		</g>
		<g>
			<g>
				<path class="st3" d="M246.16,190.73c-6.25,6.37-12.94,12.31-19.48,18.39c-9.23,8.58-18.36,17.27-27.17,26.29
					c-5.6,5.74-11.06,11.6-16.35,17.62c-0.53,0.6,0.35,1.49,0.88,0.88c16.6-18.89,35.01-35.94,53.38-53.06
					c3.25-3.03,6.5-6.07,9.61-9.24C247.6,191.04,246.72,190.16,246.16,190.73L246.16,190.73z"/>
			</g>
		</g>
		<g>
			<g>
				<path class="st3" d="M247.14,188.25c-11.15,0-22.3,2.35-32.67,6.4c-5.24,2.05-10.32,4.54-15.1,7.51
					c-4.66,2.89-8.95,6.33-13.38,9.54c-6.8,4.92-13.39,9.89-18.86,16.31c-3.13,3.67-6.15,7.56-8.58,11.73
					c-2.44,4.19-4.53,8.58-6.47,13.01c-3.89,8.86-7.33,18.74-4.71,28.48c1.18,4.39,4,8.3,7.94,10.61c3.85,2.25,8.46,2.87,12.84,2.43
					c4.77-0.47,9.48-2.11,13.74-4.26c4.1-2.07,7.64-4.97,11.03-8.03c8.33-7.51,16.22-15.46,23.4-24.08
					c7.4-8.87,14.12-18.38,19.55-28.59c5.1-9.6,9.15-19.95,10.7-30.75c0.35-2.45,0.57-4.91,0.65-7.38c0.03-0.8-1.22-0.8-1.25,0
					c-0.69,21.61-12.1,41.84-24.84,58.68c-6.68,8.83-14.13,17.09-22.11,24.76c-3.51,3.38-7.07,6.77-10.87,9.82
					c-3.67,2.95-7.76,5.16-12.2,6.72c-8.5,2.99-19.37,3.24-25.01-5.07c-5.62-8.28-3.08-19.64,0.34-28.26
					c3.43-8.64,7.52-17.05,13.14-24.48c5.16-6.81,11.15-12.49,18.02-17.55c8.22-6.05,16.27-12.46,25.48-16.95
					c9.82-4.78,20.56-7.92,31.44-8.99c2.58-0.25,5.18-0.38,7.77-0.38C247.94,189.49,247.94,188.24,247.14,188.25L247.14,188.25z"/>
			</g>
		</g>
		<g>
			<g>
				<path class="st3" d="M262.2,189.67c-3.43,4.56-10.35,4.06-13.84-0.16c-5.07-6.11-1.03-14.89,2.93-20.37
					c2.36-3.27,5.16-6.2,7.89-9.15c2.87-3.1,5.78-6.16,8.74-9.17c5.77-5.87,11.73-11.57,17.86-17.07
					c6.07-5.45,12.31-10.71,18.72-15.77c3.3-2.61,6.62-5.21,10.05-7.65c2.87-2.04,6.64-4.13,10.05-2.05
					c3.71,2.26,2.75,6.87,0.81,9.98c-2.26,3.6-5.55,6.65-8.38,9.8c-5.74,6.38-11.44,12.8-17.12,19.23
					c-11.32,12.81-22.6,25.65-34.03,38.36c-1.49,1.65-2.98,3.31-4.47,4.96c-0.54,0.6,0.34,1.48,0.88,0.88
					c12.6-13.92,24.99-28.02,37.42-42.09c6.21-7.02,12.43-14.04,18.7-21.01c2.87-3.19,6.25-6.29,8.41-10.03
					c1.7-2.94,2.47-6.79,0.17-9.65c-1.97-2.45-5.32-3.06-8.22-2.11c-3.94,1.29-7.32,4.45-10.56,6.93
					c-7.05,5.4-13.91,11.04-20.57,16.9c-6.74,5.94-13.28,12.12-19.61,18.51c-3.19,3.22-6.32,6.49-9.4,9.81
					c-2.86,3.09-5.79,6.16-8.27,9.57c-4.16,5.71-7.96,14.15-3.72,20.87c2.84,4.51,9.12,6.43,13.83,3.69
					c1.13-0.66,2.06-1.56,2.85-2.61C263.77,189.66,262.68,189.03,262.2,189.67L262.2,189.67z"/>
			</g>
		</g>
		<g>
			<g>
				<path class="st3" d="M326.28,107.49c0.67-6.32,3.17-12.49,7.28-17.36c1.86-2.21,4.05-4.16,6.52-5.65
					c2.83-1.71,6.69-3.44,9.98-2.13c1.56,0.62,2.81,2,3.37,3.57c0.52,1.46,0.22,2.97,0.12,4.48c-0.13,1.96-0.97,3.91-2.29,5.39
					c-3,3.36-7.86,5.01-11.99,6.43c-4.61,1.59-9.53,2.63-13.93,4.75c-0.72,0.35-0.09,1.43,0.63,1.08c4.44-2.14,9.44-3.15,14.08-4.77
					c4.4-1.54,9.7-3.39,12.63-7.25c1.37-1.8,2-3.82,2.15-6.04c0.11-1.65,0.31-3.16-0.32-4.74c-0.55-1.37-1.52-2.58-2.75-3.4
					c-2.99-2.01-6.83-1.08-9.88,0.29c-2.85,1.29-5.43,3.18-7.63,5.4c-5.28,5.34-8.43,12.54-9.22,19.97
					C324.95,108.29,326.2,108.28,326.28,107.49L326.28,107.49z"/>
			</g>
		</g>
		<g>
			<g>
				<path class="st3" d="M260.88,189.19c-3.36-9.19-4.05-19.24-2.15-28.82c0.16-0.79-1.05-1.12-1.21-0.33
					c-1.95,9.8-1.29,20.09,2.15,29.49C259.95,190.27,261.16,189.94,260.88,189.19L260.88,189.19z"/>
			</g>
		</g>
		<g>
			<g>
				<path class="st3" d="M261.64,157.52c6.83,4.67,9.61,13.5,9.86,21.42c0.02,0.8,1.28,0.81,1.25,0c-0.26-8.4-3.26-17.56-10.48-22.5
					C261.61,155.99,260.98,157.07,261.64,157.52L261.64,157.52z"/>
			</g>
		</g>
		<g>
			<g>
				<path class="st3" d="M270.78,147.05c2.57,3.13,4.49,6.88,6.06,10.59c1.56,3.67,2.99,7.74,2.98,11.78c0,0.8,1.25,0.81,1.25,0
					c0.01-4.21-1.47-8.43-3.09-12.26c-1.64-3.88-3.64-7.72-6.32-10.99C271.16,145.55,270.28,146.44,270.78,147.05L270.78,147.05z"/>
			</g>
		</g>
		<g>
			<g>
				<path class="st3" d="M277.32,141.52c7.92,0.32,11.95,7.83,14.41,14.39c0.28,0.75,1.49,0.42,1.21-0.33
					c-1.37-3.63-3-7.25-5.54-10.22c-2.58-3.03-6.07-4.93-10.08-5.09C276.52,140.23,276.52,141.48,277.32,141.52L277.32,141.52z"/>
			</g>
		</g>
		<g>
			<g>
				<path class="st3" d="M291.48,128.57c2.24,2.67,3.74,6.06,5.02,9.26c1.25,3.13,2.5,6.52,2.74,9.91c0.06,0.8,1.31,0.8,1.25,0
					c-0.25-3.61-1.54-7.18-2.88-10.5c-1.35-3.33-2.91-6.78-5.24-9.55C291.84,127.07,290.96,127.95,291.48,128.57L291.48,128.57z"/>
			</g>
		</g>
		<g>
			<g>
				<path class="st3" d="M297.62,123.15c2.88,0.62,5.56,2.17,7.98,3.79c2.53,1.69,4.99,3.67,6.89,6.07c0.5,0.63,1.38-0.26,0.88-0.88
					c-1.96-2.49-4.52-4.52-7.14-6.27c-2.51-1.67-5.31-3.27-8.28-3.91C297.17,121.77,296.83,122.98,297.62,123.15L297.62,123.15z"/>
			</g>
		</g>
		<g>
			<g>
				<path class="st3" d="M309.25,114.85c1.62,1.91,2.88,4.2,4.07,6.39c1.24,2.27,2.58,4.68,3.17,7.22c0.18,0.78,1.39,0.45,1.21-0.33
					c-0.62-2.64-2.01-5.16-3.3-7.51c-1.25-2.29-2.58-4.65-4.27-6.65C309.62,113.35,308.74,114.23,309.25,114.85L309.25,114.85z"/>
			</g>
		</g>
		<g>
			<g>
				<path class="st3" d="M312.98,111.32c2.24,0.11,4.43,1.33,6.27,2.53c1.98,1.29,3.93,2.91,5.23,4.91
					c0.44,0.67,1.52,0.05,1.08-0.63c-1.42-2.19-3.52-3.94-5.68-5.35c-2.03-1.33-4.43-2.58-6.9-2.7
					C312.18,110.03,312.18,111.28,312.98,111.32L312.98,111.32z"/>
			</g>
		</g>
		<g>
			<g>
				<path class="st3" d="M183.16,253.03c-4.19,4.45-8.07,9.19-12.02,13.85c-3.32,3.92-6.53,8.09-10.28,11.62
					c-0.59,0.55,0.3,1.43,0.88,0.88c3.75-3.52,6.96-7.7,10.28-11.62c3.94-4.66,7.83-9.4,12.02-13.85
					C184.59,253.33,183.71,252.44,183.16,253.03L183.16,253.03z"/>
			</g>
		</g>
	</g>
	<g>
		<g>
			<g>
				<path class="st3" d="M57.08,153.81c5.78,8.35,11.56,16.7,17.34,25.05c0.45,0.66,1.54,0.03,1.08-0.63
					c-5.78-8.35-11.56-16.7-17.34-25.05C57.71,152.52,56.63,153.15,57.08,153.81L57.08,153.81z"/>
			</g>
		</g>
		<g>
			<g>
				<path class="st3" d="M58.07,153.94c12.16-10.57,24.45-21,36.66-31.5c3.39-2.91,6.77-5.83,10.14-8.77
					c0.61-0.53-0.28-1.41-0.88-0.88c-12.16,10.57-24.45,21-36.66,31.5c-3.39,2.91-6.77,5.83-10.14,8.77
					C56.57,153.58,57.46,154.46,58.07,153.94L58.07,153.94z"/>
			</g>
		</g>
		<g>
			<g>
				<path class="st3" d="M103.89,113.54c4.97,6.56,8.42,14.12,13.43,20.65c0.48,0.63,1.57,0.01,1.08-0.63
					c-5.01-6.52-8.46-14.09-13.43-20.65C104.49,112.28,103.4,112.9,103.89,113.54L103.89,113.54z"/>
			</g>
		</g>
		<g>
			<g>
				<path class="st3" d="M75.28,179.09c12.93-9.86,24.26-21.67,35.51-33.36c2.97-3.08,5.93-6.17,8.93-9.22
					c0.21-0.22,0.21-0.5,0.1-0.76c-0.36-0.84-1.06-1.36-1.42-2.19c-0.32-0.74-1.4-0.1-1.08,0.63c0.36,0.84,1.06,1.36,1.42,2.19
					c0.03-0.25,0.07-0.5,0.1-0.76c-11.13,11.32-21.85,23.07-33.7,33.67c-3.39,3.03-6.87,5.96-10.48,8.72
					C74.02,178.49,74.64,179.57,75.28,179.09L75.28,179.09z"/>
			</g>
		</g>
		<g>
			<g>
				<path class="st3" d="M57.31,152.96c-6.31,3.57-13.43,6.22-20.61,7.34c-3.37,0.52-6.79,0.63-10.11-0.23
					c-3.54-0.91-6.87-2.51-9.84-4.63C10.36,150.87,6,143.94,4.43,136.27c-1.58-7.7-0.57-16.41,4.03-22.95
					c4.55-6.46,12.88-10.49,20.64-7.72c0.76,0.27,1.09-0.94,0.33-1.21c-6.92-2.47-14.46,0.17-19.49,5.23
					c-5.79,5.82-7.95,14.42-7.34,22.44c0.62,8.31,4.2,16.2,10.35,21.87c5.37,4.95,12.6,8.31,19.99,7.98
					c8.65-0.39,17.51-3.66,25-7.89C58.64,153.64,58.01,152.56,57.31,152.96L57.31,152.96z"/>
			</g>
		</g>
		<g>
			<g>
				<path class="st3" d="M8.84,111.57c-2.46-4.56-2.45-10.22-1.46-15.19c1.05-5.27,3.61-10,6.9-14.22
					c6.62-8.47,16.45-14.43,27.35-14.79c6.66-0.22,13.2,1.56,18.92,4.94c0.69,0.41,1.32-0.67,0.63-1.08
					c-10.42-6.17-23.33-6.83-34.17-1.31c-4.96,2.52-9.33,6.16-12.87,10.44c-3.53,4.27-6.43,9.15-7.72,14.58
					c-1.33,5.61-1.46,12.07,1.34,17.26C8.14,112.91,9.22,112.28,8.84,111.57L8.84,111.57z"/>
			</g>
		</g>
		<g>
			<g>
				<path class="st3" d="M48.21,67.24c2.33-7.94,6.9-15.51,12.75-21.35c2.69-2.69,5.81-5.15,9.39-6.51
					c3.58-1.37,7.66-1.5,11.42-0.89c8.17,1.33,15.41,6.45,19.91,13.32c5.11,7.81,7.06,17.35,7.27,26.57
					c0.26,11.76-2.37,23.33-5.13,34.69c-0.19,0.78,1.02,1.11,1.21,0.33c4.72-19.41,9.44-42.1-1.2-60.5
					c-4.27-7.37-11.29-13.15-19.64-15.19c-3.85-0.95-7.95-1.1-11.84-0.24c-3.63,0.8-6.9,2.84-9.72,5.2
					C55.28,48.79,49.69,57.75,47,66.9C46.77,67.68,47.98,68.01,48.21,67.24L48.21,67.24z"/>
			</g>
		</g>
	</g>
</g>
</svg>
