<?xml version="1.0" encoding="utf-8"?>
<!-- Generator: Adobe Illustrator 25.4.1, SVG Export Plug-In . SVG Version: 6.00 Build 0)  -->
<svg version="1.1" id="Calque_1" xmlns="http://www.w3.org/2000/svg" xmlns:xlink="http://www.w3.org/1999/xlink" x="0px" y="0px"
	 viewBox="0 0 383.7 177.4" style="enable-background:new 0 0 383.7 177.4;" xml:space="preserve">
<style type="text/css">
	.st0{fill:#F4ACCD;}
	.st1{fill:#FCF5F2;}
	.st2{fill:#EE7BAE;stroke:#F8F0E7;stroke-width:0.75;stroke-miterlimit:10;}
	.st3{fill:#A48A7B;}
</style>
<g id="Espace_de_travail">
</g>
<rect id="Contour" y="0" class="st0" width="383.7" height="177.4"/>
<rect id="Background" x="8.7" y="7.5" class="st1" width="367.1" height="161.7"/>
<path class="st0" d="M143.4,64.8c4.1,27.4,24.3,46.1,45.2,43.6c18.1-2.2,33.5-20,36.8-43.6"/>
<path class="st2" d="M184.4,56.4c-18.9,0-41,4.2-41,8.4c0,4.2,22.1,8.4,41,8.4s41-4.2,41-8.4C225.4,60.6,203.3,56.4,184.4,56.4z"/>
<g>
	<g>
		<g>
			<path class="st3" d="M208.6,69.3c-6.8,1.9-13.3,5.2-19,9.5c-2.9,2.1-5.5,4.5-7.9,7.2c-2.1,2.4-3.6,5-5.2,7.8
				c-1.1,1.9-2.9,4.3-3,6.6c-0.1,2.4,2.6,2,4.1,1.4c2.5-1,4.9-2.5,7.1-3.9c3.2-2.1,6.2-4.5,8.9-7.1c6.4-6,11.8-13.1,16.7-20.5
				c0.4-0.7-0.6-1.3-1.1-0.6c-7.6,11.5-16.6,22.1-28.5,29.2c-0.8,0.5-5.3,3.3-5.9,2c-0.4-0.8,0.7-2.5,1-3.1c0.5-1,1.1-2,1.7-3
				c1.5-2.6,2.9-5,4.8-7.3c2.1-2.5,4.5-4.7,7-6.7c5.8-4.6,12.6-8.1,19.7-10.1C209.7,70.3,209.4,69.1,208.6,69.3L208.6,69.3z"/>
		</g>
	</g>
	<g>
		<g>
			<path class="st3" d="M209.3,69.7c-3.6,3.1-7.3,5.9-11,8.9c-5.2,4.2-10.3,8.6-15.1,13.2c-0.6,0.6,0.3,1.4,0.9,0.9
				c4.8-4.7,9.9-9,15.1-13.2c3.7-3,7.4-5.8,11-8.9C210.8,70.1,209.9,69.2,209.3,69.7L209.3,69.7z"/>
		</g>
	</g>
	<g>
		<g>
			<path class="st3" d="M209.9,68.7c-4.4,0-8.9,0.8-13.1,2.1c-4.3,1.4-8.1,3.6-11.9,5.9c-2.9,1.8-5.7,3.5-8.1,5.9
				c-2.8,2.7-4.9,5.8-6.6,9.2c-1.6,3.2-3.1,6.9-1.9,10.5c1.2,3.5,4.9,4.9,8.3,4.8c3.7-0.1,7.3-1.7,10.3-3.9c3.5-2.6,6.8-5.4,9.8-8.5
				c6.5-6.5,13.1-15,13.6-24.7c0-0.8-1.2-0.8-1.2,0c-0.3,7.9-5.3,15.1-10.4,20.8c-2.7,3.1-5.7,5.9-8.9,8.5c-2.8,2.3-5.5,4.5-9,5.6
				c-3.3,1.1-7.9,1.5-10.3-1.6c-2.5-3.1-0.8-7.6,0.8-10.8s3.4-6,5.8-8.6c2.1-2.2,4.6-4,7.3-5.6c3.9-2.4,7.6-4.8,11.9-6.3
				c4.4-1.5,9.1-2.4,13.7-2.4C210.7,69.9,210.7,68.7,209.9,68.7L209.9,68.7z"/>
		</g>
	</g>
	<g>
		<g>
			<path class="st3" d="M215.9,69.3c-1.5,1.6-4.5,1.4-5.6-0.5c-1.6-2.7,1.1-5.7,2.8-7.5c4.3-4.2,9-8.2,13.8-11.8
				c2.3-1.8,4.7-3.5,7.2-5.1c1.2-0.8,2.4-1.6,3.6-2.3c1.2-0.8,2.9-1.8,4.3-0.8c1.7,1.2-0.1,3.1-1.1,4c-1.2,1.1-2.4,2.2-3.5,3.4
				c-2.3,2.2-4.5,4.4-6.8,6.6c-5,4.8-10,9.7-15,14.5c-0.6,0.6,0.3,1.4,0.9,0.9c5.6-5.3,11.1-10.7,16.7-16.1c2.8-2.7,5.5-5.3,8.3-8
				c1.6-1.5,3.9-4.5,1.3-6.3c-2.7-1.8-5.9,0.9-8.1,2.3c-3,2-6,4.1-8.9,6.3c-2.8,2.1-5.5,4.4-8.2,6.7c-2.5,2.2-5.4,4.5-7.3,7.2
				c-1.6,2.3-2.5,5.8,0,7.8c1.9,1.5,4.9,1.4,6.6-0.4C217.4,69.6,216.5,68.7,215.9,69.3L215.9,69.3z"/>
		</g>
	</g>
	<g>
		<g>
			<path class="st3" d="M243,40.4c0.3-2.2,1.4-4.4,3-6c0.8-0.8,1.7-1.5,2.7-1.9c1.1-0.5,2.6-1.1,3.9-0.6c1.7,0.8,1.2,3.2,0,4.2
				c-1.3,1.1-3.2,1.6-4.8,2.1c-1.8,0.5-3.7,0.9-5.5,1.6c-0.7,0.3-0.4,1.5,0.3,1.2c1.8-0.8,3.8-1.1,5.7-1.7c1.9-0.5,4.1-1.2,5.4-2.6
				c1.4-1.5,1.7-4.3-0.1-5.6c-2.4-1.7-5.8,0.2-7.7,1.7c-2.3,1.9-3.8,4.6-4.2,7.6C241.7,41.2,242.9,41.2,243,40.4L243,40.4z"/>
		</g>
	</g>
	<g>
		<g>
			<path class="st3" d="M215.9,69.2c-1.3-3.1-1.6-6.6-0.8-9.9c0.2-0.8-1-1.1-1.2-0.3c-0.8,3.6-0.5,7.4,0.9,10.8
				c0.1,0.3,0.6,0.4,0.9,0.2C216,69.9,216,69.5,215.9,69.2L215.9,69.2z"/>
		</g>
	</g>
	<g>
		<g>
			<path class="st3" d="M215.8,58.5c2.5,1.5,3.8,4.4,3.9,7.3c0,0.8,1.3,0.8,1.2,0c-0.1-3.3-1.6-6.6-4.5-8.3
				C215.7,57.1,215.1,58.1,215.8,58.5L215.8,58.5z"/>
		</g>
	</g>
	<g>
		<g>
			<path class="st3" d="M219.4,54.8c1,1.1,1.8,2.3,2.4,3.7c0.6,1.2,1.2,2.6,1.2,4c0,0.8,1.2,0.8,1.2,0c0-1.6-0.6-3.1-1.3-4.5
				c-0.7-1.4-1.6-2.8-2.7-4C219.8,53.3,218.9,54.2,219.4,54.8L219.4,54.8z"/>
		</g>
	</g>
	<g>
		<g>
			<path class="st3" d="M222.4,52.9c1.4,0,2.7,0.6,3.6,1.6c0.9,0.9,1.5,2.1,2.1,3.3c0.1,0.3,0.6,0.4,0.9,0.2
				c0.3-0.2,0.4-0.5,0.2-0.9c-0.6-1.3-1.3-2.7-2.4-3.7c-1.2-1.2-2.7-1.8-4.4-1.9C221.6,51.6,221.6,52.9,222.4,52.9L222.4,52.9z"/>
		</g>
	</g>
	<g>
		<g>
			<path class="st3" d="M228,48.2c0.9,0.9,1.5,2,2,3.2c0.3,0.6,0.5,1.2,0.7,1.8c0.1,0.3,0.2,0.6,0.2,0.9c0.1,0.3,0.1,0.5,0.1,0.7
				c0,0.3,0.3,0.6,0.6,0.6c0.3,0,0.6-0.3,0.6-0.6c-0.1-1.4-0.7-2.7-1.2-3.9c-0.6-1.2-1.3-2.5-2.2-3.5
				C228.3,46.7,227.4,47.6,228,48.2L228,48.2z"/>
		</g>
	</g>
	<g>
		<g>
			<path class="st3" d="M230.7,46.4c1.1,0.2,2.2,0.7,3.2,1.3c1,0.6,2,1.2,2.8,2.1c0.5,0.6,1.4-0.3,0.9-0.9c-0.9-0.9-1.9-1.7-3-2.3
				c-1.1-0.6-2.3-1.2-3.5-1.4c-0.3-0.1-0.7,0.1-0.8,0.4C230.2,45.9,230.4,46.3,230.7,46.4L230.7,46.4z"/>
		</g>
	</g>
	<g>
		<g>
			<path class="st3" d="M235.4,43.3c0.1,0.1,0.2,0.3,0.4,0.4c0.1,0.1,0.1,0.2,0.2,0.2c0.1,0.1,0,0,0.1,0.1c0,0,0.1,0.1,0.1,0.1
				c0.3,0.4,0.6,0.9,0.9,1.3c0.3,0.5,0.6,0.9,0.8,1.4c0.1,0.2,0.2,0.4,0.3,0.7c0.1,0.2,0-0.1,0,0c0,0,0,0.1,0.1,0.1
				c0,0.1,0.1,0.2,0.1,0.3c0.2,0.8,1.4,0.5,1.2-0.3c-0.3-1-0.9-1.9-1.4-2.8s-1.1-1.7-1.8-2.4C235.7,41.9,234.8,42.8,235.4,43.3
				L235.4,43.3z"/>
		</g>
	</g>
	<g>
		<g>
			<path class="st3" d="M237.2,42.2c0.1,0,0.1,0,0.2,0c0,0,0.2,0,0.1,0c-0.1,0,0.1,0,0.1,0c0.1,0,0.1,0,0.1,0c0.2,0,0.4,0.1,0.6,0.2
				c0.4,0.2,0.8,0.3,1.3,0.6c0.2,0.1,0.4,0.2,0.6,0.4c0.1,0.1,0.2,0.2,0.3,0.2c0.1,0.1,0.2,0.1,0.2,0.2c0.2,0.1,0.4,0.3,0.5,0.5
				c0.1,0.1,0.1,0.1,0.2,0.2c0,0,0.1,0.1,0.1,0.1c0,0,0.1,0.2,0,0c0.2,0.3,0.5,0.4,0.9,0.2c0.3-0.2,0.4-0.6,0.2-0.9
				c-0.6-0.9-1.6-1.5-2.5-2c-0.9-0.5-2-1-3-1c-0.3,0-0.6,0.3-0.6,0.6C236.5,41.9,236.8,42.2,237.2,42.2L237.2,42.2z"/>
		</g>
	</g>
	<g>
		<g>
			<path class="st3" d="M183.2,91.8c-1.7,1.6-3.3,3.3-5,4.9c-1.4,1.4-2.7,2.9-4.2,4.1c-0.6,0.5,0.3,1.4,0.9,0.9
				c1.5-1.2,2.9-2.7,4.2-4.1c1.6-1.7,3.2-3.3,5-4.9C184.7,92.2,183.8,91.3,183.2,91.8L183.2,91.8z"/>
		</g>
	</g>
</g>
<g>
	<g>
		<g>
			<path class="st3" d="M131.1,57.2c2.4,3,4.8,5.9,7.2,8.9c0.2,0.3,0.7,0.2,0.9,0c0.3-0.3,0.2-0.6,0-0.9c-2.4-3-4.8-5.9-7.2-8.9
				c-0.2-0.3-0.7-0.2-0.9,0C130.8,56.6,130.9,57,131.1,57.2L131.1,57.2z"/>
		</g>
	</g>
	<g>
		<g>
			<path class="st3" d="M131.9,57.3c6.4-4.8,12.9-9.5,19.4-14.3c0.6-0.5,0-1.6-0.6-1.1c-6.4,4.8-12.9,9.5-19.4,14.3
				C130.6,56.7,131.2,57.8,131.9,57.3L131.9,57.3z"/>
		</g>
	</g>
	<g>
		<g>
			<path class="st3" d="M150.5,42.9c2,2.3,3.5,5,5.6,7.3c0.5,0.6,1.4-0.3,0.9-0.9c-2.1-2.3-3.5-5-5.6-7.3
				C150.8,41.4,149.9,42.3,150.5,42.9L150.5,42.9z"/>
		</g>
	</g>
	<g>
		<g>
			<path class="st3" d="M139,66.2c6.7-4.4,12.5-9.9,18.5-15.2c0.2-0.2,0.2-0.5,0.1-0.8c-0.2-0.3-0.4-0.5-0.6-0.8
				c-0.4-0.7-1.5-0.1-1.1,0.6c0.2,0.3,0.4,0.5,0.6,0.8c0-0.2,0.1-0.5,0.1-0.8c-5.9,5.2-11.6,10.7-18.2,15
				C137.7,65.6,138.4,66.6,139,66.2L139,66.2z"/>
		</g>
	</g>
	<g>
		<g>
			<path class="st3" d="M131.2,56.2c-4.7,2.3-10.6,3.9-15.5,1.4c-2.6-1.3-4.7-3.5-5.6-6.3c-0.9-2.8-0.6-6.1,1.2-8.5
				c1.9-2.4,5.3-3.6,8.3-2.7c0.8,0.2,1.1-1,0.3-1.2c-2.9-0.8-6,0-8.3,1.9c-2.5,2.1-3.6,5.4-3.2,8.6c0.7,6.4,7,11.1,13.2,10.7
				c3.5-0.2,7-1.3,10.2-2.8C132.6,57,131.9,55.9,131.2,56.2L131.2,56.2z"/>
		</g>
	</g>
	<g>
		<g>
			<path class="st3" d="M111.7,41.7c-2.8-4.6,1.5-10.1,5.2-12.5c4.7-3.1,10.7-3.4,15.7-0.9c0.7,0.4,1.4-0.7,0.6-1.1
				c-5.6-2.8-12.4-2.4-17.5,1.2c-4.1,2.9-8.1,8.8-5.1,13.9C111,43,112.1,42.4,111.7,41.7L111.7,41.7z"/>
		</g>
	</g>
	<g>
		<g>
			<path class="st3" d="M128,26.3c1.3-3.6,4-7,7.3-8.9c3.4-1.9,7.7-1.3,10.9,0.6c8.6,5.1,6.3,16.4,4.1,24.3c-0.2,0.8,1,1.1,1.2,0.3
				c2.1-7.3,4-16.1-1.1-22.6c-4-5.1-11.8-6.8-17.1-2.9c-2.9,2.2-5.3,5.3-6.5,8.7C126.5,26.7,127.7,27,128,26.3L128,26.3z"/>
		</g>
	</g>
</g>
<g>
	<path class="st0" d="M75.6,121.2c0.7-0.5,0.7-0.7,1.5-0.9c0.2-0.1,0.5-0.1,0.8-0.1c0.8,0,1.7,0.2,2.2,0.8c0.5,0.6,0.9,1.2,0.9,1.7
		c0,0.2-0.2,0.6-0.2,0.6c0.1,0.1,0.3,0.4,0.3,1c0,0.2,0,0.4-0.1,0.7c-0.3,1-0.6,0.9-0.9,1.4c-0.2,0.5-0.6,0.9-1.4,1.5
		c-0.9,0.6-2.1,1.6-3.2,1.6c-0.9,0.1-2.4,0.4-3.5,0.4c-1,0-1.8-0.5-2.5-0.9c-0.8-0.3-2.1-1.4-3-2.5c-0.3-0.4-0.9-1.2-0.9-2.9
		c0-0.3,0-0.5,0.1-0.8c0.2-2.2,0.7-4,2-5.1c1.4-1.2,1.8-1.9,2.8-2.3c1-0.5,1.5-0.9,2.9-1.5c1.3-0.6,3.5-1.1,5.2-1.1
		c1.7,0,4.1,0,5.5,0.8s1.1,1.2,2.2,1.7c0.9,0.4,2.3,2.1,2.6,3.8c0.2,1.2,0.3,2.3,0.3,3.8c0,0.7-0.1,1.4-0.1,2.2
		c-0.2,2.6-1.1,3.9-1.5,5.2c-0.3,0.9-0.5,1.3-0.5,1.7c0,0.1,0.1,0.3,0.2,0.4c0.1,0.1,0.2,0.1,0.3,0.1c0.4,0,1-0.4,1.6-1
		c0.9-0.8,1.4-1.3,1.8-1.4c0.4-0.1,1-0.9,1.2-1.2c0.7-0.8,2.2-2.3,2.6-2.5c0.4-0.2,0.1-0.3,0.6-1c0.6-0.7,0.9-1.3,1.3-2.4
		s0.6-1.3,0.9-2.4c0.3-1.1,0.4-0.9,0.6-2c0.1-0.2,0.1-0.4,0.1-0.6c0-0.3-0.1-0.6-0.1-0.9c0-0.3,0.1-0.6,0.3-0.8
		c0.5-0.4,2-1.3,2.5-1.3c0.9,0,0.9,0.5,0.9,1.1c0,0.9-0.8,2.8-1.2,4.3c-0.4,1.5-0.9,1.9-1.3,2.7c-0.4,0.7-1.4,1.9-2.3,3.1
		c-0.9,1.2-2.1,2.3-3.1,3.2c-1.1,1-1.8,1.4-2.5,2.1c-0.7,0.6-1.1,0.8-1.5,1.1c-0.4,0.4-1.5,1-1.5,1c0,0.1,0.5,0.8,1.1,2.3
		c0.7,1.6,0.9,2.3,1.2,3.5c0.3,1.1,0.6,2.1,0.9,2.5c0.2,0.5,0.4,0.9,0.7,1.4c0.2,0.5,0.7,0.8,1.2,1.1c0.1,0,0.2,0.1,0.4,0.1
		c0.3,0,0.7-0.2,1-0.4c0.4-0.3,0.2-0.6,0.3-0.9c0.1-0.1,0.3-0.3,0.5-0.3c0.1,0,0.3,0,0.4,0.2c0.1,0.1,0.1,0.2,0.1,0.4
		c0,0.4-0.3,1.1-0.8,1.4c-0.6,0.5-1.7,0.7-2.3,0.8c-0.1,0-0.4,0.1-0.7,0.1c-0.5,0-1.2-0.1-1.8-0.2c-0.9-0.2-1.5-0.8-1.7-1.2
		c-0.2-0.5-1.1-1.5-1.2-2.4c-0.2-1.3-0.6-3.6-1.1-4.5c-0.3-0.7-0.6-1.5-0.9-1.5c-0.1,0-0.1,0.1-0.1,0.1c-0.3,0.4-0.5,1.5-1.6,2.9
		c-1,1.3-1.1,1.9-1.8,2.9c-0.6,1-0.5,1.3-1.4,2.4s-1.3,1.6-2.2,2.6c-0.9,1-1.1,1-2.3,1.8c-1.2,0.9-2.3,1.2-3.8,1.2
		c-1.2,0-2.6-0.7-2.9-1.3c-0.1-0.3-0.2-0.7-0.2-1.1c0-0.7,0.2-1.4,0.6-1.9c0.5-0.5,1.4-1.3,2.2-1.3c0.3-0.1,0.7-0.1,1-0.1
		c0.4,0,0.8,0.1,1.1,0.4c0.4,0.4,0.5,0.7,0.5,1.1c0,0.3-0.1,0.5-0.2,0.8c-0.2,0.3-0.7,0.5-1,0.5c-0.2,0-0.3-0.1-0.4-0.1
		c-0.1-0.1-0.1-0.1-0.1-0.1c0-0.2,0.2-0.5,0.2-1c0-0.3-0.2-0.5-0.5-0.5c-0.2,0-0.4,0.1-0.7,0.4c-0.6,0.6-0.9,1.1-0.9,1.7
		c0,0.4,0.3,1.5,1.1,1.5c0.2,0,0.5-0.1,1.2-0.1c0.8-0.1,1.3-0.3,1.6-0.6c0.3-0.2,0.3-0.3,1-0.9c0.6-0.5,0.8-0.3,1.3-1.5
		c0.5-1.1,0.7-0.9,1.3-1.7c0.6-0.8,1-1.7,2-3.3c0.3-0.5,0.6-0.8,0.7-1c0.3-0.4,0.2-0.4,0.6-1.4c0.4-1.3,1.1-2.2,1.1-2.6
		c0-0.1-0.1-0.1-0.1-0.1c-0.1-0.1-0.3-0.1-0.5-0.1c-0.3,0-0.7,0.1-1.2,0.2c-0.2,0.1-0.5,0.1-0.9,0.1c-0.7,0-1.3-0.1-1.5-0.2
		c-0.3-0.1-1.4-0.2-1.8-0.5c-0.3-0.2-0.5-0.7-0.5-1.2c0-0.2,0.1-0.4,0.1-0.6c0.4-0.5,1.8-1.5,2.9-1.6c0.6-0.1,1-0.3,1.6-0.3
		c0.1,0,0.2,0,0.3,0.1c0.9,0.1,1.7,0.1,2,0.4c0.1,0.1,0.1,0.1,0.2,0.1c0.2,0,0.4-0.5,0.6-1.1c0.1-0.7,0.1-1.7,0.3-2.9
		c0.3-1.2,0.1-3.1,0.3-4.3c0.1-0.4,0.1-0.7,0.1-1c0-0.9-0.2-1.4-0.3-2.3c-0.1-1.4-1-3.5-2.3-4.5c-0.5-0.3-1.3-0.8-2-1
		c-0.7-0.2-1.4-0.6-2.3-0.6c-0.8,0-1,0.1-1.5,0.1s-1.4,0.7-2.7,1.2c-1.2,0.5-1.7,0.9-2.7,1.9c-1,1.1-1.5,1.1-2.1,1.7
		c-0.6,0.6-1,1.5-1.3,1.9c-0.4,0.6-0.5,1.4-0.5,2.3c0,0.9,0.2,1.8,0.4,2.3c0.4,1,0.4,0.7,0.7,1.2c0.3,0.6,1.2,1.2,1.6,1.3
		c0.4,0.1,1,0.7,2.1,0.7c0.1,0,0.3,0,0.5-0.1c1.3-0.2,2.4-0.4,3.2-0.7c0.7-0.3,1.5-1.1,2.3-1.9c0.8-0.9,0.8-1.6,0.8-2.4
		c0-1.1-0.1-1.5-0.6-1.7c-0.6-0.2-0.7-0.4-1.5-0.4c-0.7,0-1.1,0.2-1.1,0.7c0,0.3,0.7,0.7,0.7,1.2s-0.3,0.7-1.2,0.7
		c-0.5,0-0.9-0.4-0.9-0.8C74.6,122.5,75,121.6,75.6,121.2z M82.1,132.7c-0.4-0.1-0.7-0.2-1.1-0.2c-0.1,0-0.2,0-0.3,0.1
		c-0.6,0.1-1.6,0.1-1.6,0.5c0,0.4,0.6,0.6,1,0.7c0.5,0.1,0.8,0.1,1,0.1c0.3,0,0.5,0,0.9-0.1c0.8-0.1,1.2-0.2,1.2-0.4
		C83,133.1,82.5,132.9,82.1,132.7z"/>
	<path class="st0" d="M106.6,131c0.2-0.2,0.5-0.2,0.9-0.6c0.3-0.4,0.6-0.5,1.2-0.5c1,0,1.2,0.6,1.2,1.1c0,0.5-0.2,0.7-0.6,1.2
		c-0.4,0.6-0.4,0.5-0.8,1.3c-0.3,0.8-0.3,0.9-0.5,1.4c-0.2,0.5-0.4,0.8-0.7,1.5c-0.3,0.8-0.3,0.9-0.3,1.8c0,0.7-0.2,1.2-0.2,1.8
		c0,0.5,0.2,1.3,0.7,1.5c0.1,0.1,0.2,0.1,0.3,0.1c0.3,0,0.7-0.2,1.1-0.3c0.5-0.1,0.9-0.6,1.4-0.9c0.4-0.4,0.5-0.6,0.8-0.9
		s0.6-0.6,0.8-0.7c0.3-0.1,0.6-0.8,0.9-1.1l1.2-1.5c0.1-0.2,0.5-0.6,0.8-0.6c0.1,0,0.1,0.1,0.1,0.1c0.2,0.1,0.3,0.5,0.3,0.8
		l-1.3,1.6c-0.1,0.1-0.5,0.6-0.8,0.9c-0.3,0.3-0.7,0.9-2.2,2.5c-0.2,0.3-1,0.7-1.3,1c-0.4,0.2-0.9,0.7-1.4,0.8
		c-0.1,0.1-0.3,0.1-0.5,0.1c-0.3,0-0.7-0.1-1-0.1c-0.5-0.1-0.8-0.6-1.1-0.7c-0.2-0.1-0.7-0.1-1.1-0.3c-0.3-0.2-1-1.5-1-2.3
		c0-1.3,0-1.5-0.1-1.5s-1,0.4-1.3,1c-0.4,0.5-0.9,0.8-1.2,1.1c-0.3,0.3-0.7,0.6-1.1,0.8c-0.4,0.1-1.8,0.7-2.6,0.7s-1.2-0.3-1.6-0.4
		c-0.4-0.1-1.4-0.8-1.4-2.7s0.4-2.7,0.9-3.5s0.5-0.7,0.9-1c0.2-0.2,0.2-0.5,0.9-1.4c0.7-1,1.2-1.5,1.6-1.5c0.3-0.1,0.3-0.2,0.8-0.5
		c0.4-0.2,1.5-0.5,2.1-0.9c0.3-0.2,0.3-0.2,1.6-0.2c1.4,0,1.7,0.1,1.8,0.4c0.1,0.2,0.2,0.1,0.7,0.4c0.4,0.3,0.4,0.9,0.6,1.4
		C106,131.7,106.6,131.2,106.6,131z M104.1,131.1c-0.4-0.4-0.7-0.6-1.5-0.6c-0.8,0-0.3,0.1-0.9,0.3c-0.6,0.2-0.7,0.6-1,0.9
		c-0.1,0.3-0.3,0.5-0.5,0.7c-0.2,0.1-0.3,0-0.8,0.6c-0.5,0.7-0.7,1.2-1.2,2.5c-0.5,1.3-0.7,2.1-0.7,3.2c0,1,0.2,1.6,0.6,1.6
		c0.4,0,1-0.4,1.3-0.6c0.2-0.1,0.8-0.2,1.1-0.8c0.3-0.6,0.9-1.1,1.3-1.5c0.5-0.3,0.9-1,1.3-1.4c0.5-0.5,1.4-2.8,1.4-3.3
		C104.6,132.2,104.4,131.6,104.1,131.1z"/>
	<path class="st0" d="M114.7,124.7c-0.7,0-1.1,0.1-1.2,0.1s-0.3-0.1-0.3-0.3c0-0.3,1-1.3,2.8-1.3c0.6,0,1.2,0.5,1.9,0.6l0.9,0.5
		l0.2-0.5c1.5-2.7,2.6-4,3.1-4c0.7,0,1.5,0.8,1.5,1.3c0,0.5-1.1,2.5-1.6,2.9c-0.4,0.3-0.6,0.7-0.8,1c0.7,0.1,1.1,0.1,1.6,0.1
		c0.6,0,1.1-0.2,1.2-0.7c0.2-0.5,0.7-0.8,1-0.8c0.4,0,0.8,0.2,0.8,0.9c0,0.7-1.2,1.3-2.6,1.6c-0.4,0.1-0.4,0.1-2,0.1
		c-0.2,0-0.4,0-0.7-0.1c-0.2,0.4-0.4,1-0.7,1.3c-0.4,0.6-1,2.1-1.2,2.5c-0.2,0.4-0.4,1.5-0.9,2.3c-0.4,0.8-0.5,1.6-0.7,2.3
		c-0.2,0.6-0.4,0.3-0.6,1.2c-0.2,0.8,0,1.4-0.4,2.6c-0.2,0.7-0.3,1-0.3,1.2c0,1,0.1,1.3,0.6,1.3c0.9,0,1.2-0.1,1.4-0.2
		c0.4-0.3,1.2-0.5,1.5-1.1c0.3-0.5,1.1-1.2,1.4-1.5c0.5-0.4,0.9-0.9,1.2-1.3c0.3-0.4,0.8-1.1,1.1-1.1s0.6,0.2,0.6,0.5
		c0,0.1-0.1,0.2-0.1,0.4c-0.3,0.4-0.6,1-1.1,1.5c-0.5,0.4-0.9,1.3-1.4,1.7c-0.4,0.3-0.9,0.7-1.2,1.1c-0.4,0.4-1.3,1.1-1.7,1.3
		c-0.4,0.3-1.2,0.6-1.7,0.6s-1.4-0.2-2-0.6s-1.5-1.3-1.5-2.3c0-0.1-0.1-0.2-0.1-0.4c0-0.8,0.4-1.7,0.5-2.6c0.1-1,0.4-1.6,0.8-2.3
		c0.4-0.7,0.5-1.6,0.7-2.2s0.5-1.5,0.9-2.2c0.4-0.7,1-1.6,1.2-2.2c0.3-0.7,0.2-1.1,1.1-2.5C118,125.5,115.9,124.7,114.7,124.7z"/>
	<path class="st0" d="M133.9,131c0.2-0.2,0.5-0.2,0.9-0.6c0.3-0.4,0.6-0.5,1.2-0.5c1,0,1.1,0.6,1.1,1.1c0,0.5-0.2,0.7-0.6,1.2
		c-0.4,0.6-0.4,0.5-0.8,1.3c-0.3,0.8-0.3,0.9-0.5,1.4c-0.2,0.5-0.4,0.8-0.7,1.5c-0.3,0.8-0.3,0.9-0.3,1.8c0,0.7-0.2,1.2-0.2,1.8
		c0,0.5,0.2,1.3,0.7,1.5c0.1,0.1,0.2,0.1,0.3,0.1c0.3,0,0.7-0.2,1.1-0.3c0.5-0.1,0.9-0.6,1.4-0.9c0.4-0.4,0.5-0.6,0.8-0.9
		s0.6-0.6,0.8-0.7c0.3-0.1,0.6-0.8,0.9-1.1l1.2-1.5c0.1-0.2,0.5-0.6,0.8-0.6c0.1,0,0.1,0.1,0.1,0.1c0.2,0.1,0.3,0.5,0.3,0.8
		l-1.3,1.6c-0.1,0.1-0.5,0.6-0.8,0.9c-0.3,0.3-0.7,0.9-2.2,2.5c-0.2,0.3-1,0.7-1.3,1c-0.4,0.2-0.9,0.7-1.4,0.8
		c-0.1,0.1-0.3,0.1-0.5,0.1c-0.3,0-0.7-0.1-1-0.1c-0.5-0.1-0.8-0.6-1.1-0.7c-0.2-0.1-0.7-0.1-1.1-0.3c-0.3-0.2-1-1.5-1-2.3
		c0-1.3,0-1.5-0.1-1.5s-1,0.4-1.3,1c-0.4,0.5-0.9,0.8-1.2,1.1c-0.3,0.3-0.7,0.6-1.1,0.8c-0.4,0.1-1.8,0.7-2.6,0.7s-1.2-0.3-1.6-0.4
		c-0.4-0.1-1.4-0.8-1.4-2.7s0.4-2.7,0.9-3.5s0.5-0.7,0.9-1c0.2-0.2,0.2-0.5,0.9-1.4c0.7-1,1.2-1.5,1.6-1.5c0.3-0.1,0.3-0.2,0.8-0.5
		c0.4-0.2,1.5-0.5,2.1-0.9c0.3-0.2,0.3-0.2,1.6-0.2c1.4,0,1.7,0.1,1.8,0.4c0.1,0.2,0.2,0.1,0.7,0.4c0.4,0.3,0.4,0.9,0.6,1.4
		C133.4,131.7,133.9,131.2,133.9,131z M131.4,131.1c-0.4-0.4-0.7-0.6-1.5-0.6c-0.8,0-0.3,0.1-0.9,0.3c-0.6,0.2-0.7,0.6-1,0.9
		c-0.1,0.3-0.3,0.5-0.5,0.7c-0.2,0.1-0.3,0-0.8,0.6c-0.5,0.7-0.7,1.2-1.2,2.5c-0.5,1.3-0.7,2.1-0.7,3.2c0,1,0.2,1.6,0.6,1.6
		c0.4,0,1-0.4,1.3-0.6c0.2-0.1,0.8-0.2,1.1-0.8c0.3-0.6,0.9-1.1,1.3-1.5c0.5-0.3,0.9-1,1.3-1.4c0.5-0.5,1.4-2.8,1.4-3.3
		C131.9,132.2,131.8,131.6,131.4,131.1z"/>
	<path class="st0" d="M140.3,137.3c0-0.4,0.5-1,1.2-1.7c0.3-0.4,0.4-0.6,1.1-1.3c0.5-0.6,1-1.1,1-1.6c0-0.6-1-1.8-1-3.1
		c0-0.8-0.1-1.3-0.1-1.7c0-0.3,0.1-0.6,0.2-0.8c0.4-0.5,1.1-1.2,1.7-1.2c0.5-0.1,1-0.5,1.5-0.5c0.5,0,1.3,0.7,1.7,1.1
		c0.1,0.2,0.2,0.5,0.2,0.9s-0.1,0.9-0.2,1.3c-0.3,0.8-0.4,1.4-0.7,2.1c-0.2,0.7-0.6,1-0.6,1.4s0.2,0.8,0.9,1.1
		c0.6,0.2,1.3,0.5,1.6,0.8c0.1,0.1,0.2,0.3,0.2,0.5c0,0.3-0.1,0.6-0.4,1.1c-0.7,1-1.4,1.8-1.8,2.3c-0.4,0.4-0.7,1.2-0.9,2.2
		c-0.1,0.8-0.2,0.5-0.2,1.1s0.6,1,1.3,1c0.7,0,1.1-0.6,1.6-0.7c0.5-0.1,0.5-0.4,1.3-0.9c0.9-0.5,1.1-1.1,1.8-1.5
		c0.7-0.5,1-0.9,1.6-1.3c0.5-0.5,1.3-2,1.7-2c0.4,0,0.6,0.1,0.6,0.7c0,0.3-0.3,0.6-0.8,1.1c-0.8,0.7-1,1.4-2,2.2
		c-1,0.8-1.5,1.1-2,1.5c-0.4,0.4-2.2,2.3-3.3,2.6c-1.1,0.3-2,0.4-2.6,0.4c-0.6,0-2-1.1-2.2-1.7c-0.1-0.6-0.5-1-0.5-1.6
		c0-0.5,0.4-1.5,0.9-2.2c0.5-0.6,0.4-1.3,1-1.8c0.6-0.5,0.3-0.8,1.1-1.4c0.8-0.6,1.1-0.9,1.1-1.1c0-0.3-0.4-0.1-0.8-0.3
		c-0.5-0.2-0.5-0.2-0.9-0.2s-0.7,0.6-0.9,1s-0.5,0.6-1,1.1c-0.4,0.5-0.6,0.8-0.9,1.1c-0.5,0.6-0.8,1-1.1,1c-0.1,0-0.3-0.1-0.5-0.3
		C140.4,137.5,140.3,137.4,140.3,137.3z M146.3,129.1c0.1-0.4,0-0.9,0.1-1.5c0-0.1,0.1-0.2,0.1-0.3c0-0.5-0.3-0.9-0.5-0.9
		c-0.2,0.1-0.4,0.8-0.5,1.3c-0.1,0.3-0.1,0.6-0.1,1c0,0.2,0,0.5,0.1,0.7c0.1,0.6,0.3,1.2,0.3,1.2
		C145.8,130.6,146.1,129.6,146.3,129.1z"/>
	<path class="st0" d="M158.9,131.8c0,1-0.1,1.3-0.4,2c-0.3,0.7-0.5,0.7-0.6,1.7c-0.1,1-0.1,1-0.1,1.9s0.1,0.9,0.2,1.4
		c0.1,0.6,0.5,0.9,1,1.1c0.1,0.1,0.2,0.1,0.3,0.1c0.4,0,0.9-0.4,1.4-0.6c0.5-0.3,0.7-0.1,1.4-1c0.5-0.5,1.3-1.1,1.9-1.7s0.7-1,1.1-1
		c0.3,0,0.3,0.1,0.3,0.3c0,0.9-0.9,1.6-1.2,1.9c-0.7,0.6-0.7,0.2-1,0.8s-1.1,1.3-1.7,1.7c-0.7,0.4-1.1,0.7-1.4,0.9
		c-0.3,0.2-0.6,0.5-1.7,0.5c-1.1,0-2.1-0.4-2.4-0.7s-0.8-1.1-1.1-1.5c-0.1-0.2-0.1-0.4-0.1-0.6c0-0.8,0-1-0.1-1.2
		c-0.1-0.4-0.2-0.8-0.2-1.1c0-0.2,0.1-0.5,0.1-0.8c0.1-0.9,0-1.2,0.2-1.9c0.3-0.6,0.5-1,0.8-1.6s1-1.8,1.9-1.8
		C157.5,130.5,158.9,130.6,158.9,131.8z M159.8,124.9c-0.1,0-0.2,0-0.4-0.1c-0.5-0.1-0.9-0.7-0.9-1.2c0-0.1,0.1-0.2,0.1-0.3
		c0.2-0.5,0.1-0.8,0.8-1.6c0.3-0.3,0.7-0.4,1.1-0.4c0.4,0,0.8,0.1,0.9,0.3c0.3,0.3,0.5,0.7,0.5,1.2c0,0.1,0,0.2-0.1,0.3
		c-0.1,0.5-1,1.3-1.3,1.5C160.2,124.8,160.1,124.9,159.8,124.9z"/>
	<path class="st0" d="M169.6,130.3c0,1-0.1,0.5-0.3,1.3c-0.2,0.6-0.6,1.3-0.6,1.6c0,0.1,0,0.2,0.1,0.2c0.4,0,0.6-0.4,1.2-0.8
		c0.6-0.3,1.5-1.3,1.9-1.4c0.5,0,1.7-1.2,3.6-1.2c1,0,2.5,1.7,2.5,2.5c0,1.3-0.4,1.3-1,2.4s-0.7,1.1-1.2,2.6c-0.4,1.4-0.7,2-0.7,2.8
		c0,0.7,0.3,1.3,1.4,1.3c1,0,1-0.2,1.6-0.6c0.6-0.5,0.7-0.6,1.3-1c0.6-0.4,1.1-1.1,1.5-1.4c0.4-0.3,0.6-0.8,1-1.1
		c0.3-0.2,0.7-0.8,1-1c0.2-0.2,0.6-1.1,1-1.1c0.4,0,0.7,0.3,0.7,0.8c0,0.4-0.3,0.7-0.8,1.1c-0.4,0.5-0.3,0.8-1,1.2s-1.3,1.4-1.8,1.8
		c-0.4,0.5-1.5,1.2-2.3,1.9c-0.8,0.6-0.8,0.5-1.6,0.8c-0.2,0.1-0.5,0.1-0.8,0.1c-0.8,0-1.6-0.2-2.2-0.7c-0.8-0.6-1.3-0.7-1.8-1.5
		c-0.5-0.7-0.5-1-0.5-2.3c0-1.3,0.7-2.7,1.3-3.3c0.6-0.5,0.6-1.1,1.1-1.6c0.5-0.4,1.2-1,1.2-1.7s-0.4-0.9-0.9-0.9
		c-0.4,0-1.1,0.4-1.8,0.7c-0.7,0.2-1.2,0.6-1.9,1.1c-0.6,0.5-0.8,1.3-1.5,1.7c-0.8,0.4-1.1,0.8-1.6,1.4c-0.6,0.7-0.8,1.9-1.3,3.1
		c-0.5,1.1-0.2,0.6-0.5,1.1c-0.3,0.6-1.7,1.4-2.4,1.4c-0.2,0-0.4,0.1-0.5,0.1c-0.3,0-0.3-0.1-0.3-0.7c0-0.9,0.3-1.8,0.7-2.5
		c0.3-0.7,0.6-1.5,0.8-2.2c0.2-0.7,0.1-0.9,0.6-1.7c0.4-0.8,0.7-2.1,1-2.4c0.3-0.2,0.5-1.6,0.8-2.6c0.2-1,0.7-1.8,1.2-1.8
		C168.3,128.1,169.6,129.3,169.6,130.3z"/>
	<path class="st0" d="M197.4,139.3c0.2,0,0.5,0.2,0.5,0.4c0,0.2-0.1,0.6-1.2,1.4c-1.3,0.9-2.3,0.8-2.9,0.8s-1.1-0.3-1.5-0.5
		c-0.3-0.1-0.9-1-0.9-1.8c0-1.3,0-1.5-0.1-1.5s-1,0.4-1.3,1c-0.4,0.5-0.9,0.8-1.2,1.1c-0.3,0.3-0.7,0.6-1.1,0.8
		c-0.4,0.1-1.8,0.7-2.6,0.7c-0.8,0-1.1-0.3-1.6-0.4c-0.4-0.1-1.4-0.8-1.4-2.7s0.4-2.7,0.9-3.5s0.5-0.7,0.9-1
		c0.2-0.2,0.2-0.5,0.9-1.4c0.7-1,1.2-1.5,1.6-1.5c0.3-0.1,0.3-0.2,0.8-0.5c0.4-0.2,1.5-0.5,2.1-0.9c0.3-0.2,0.3-0.2,1.6-0.2
		c1.4,0,1.7,0.1,1.8,0.4c0.1,0.2,0.2,0.1,0.7,0.4c0.4,0.3,0.4,0.9,0.6,1.4c0.2,0,0.8-0.5,0.8-0.7c0.2-0.2,0.5-0.2,0.9-0.6
		c0.3-0.4,0.6-0.5,1.2-0.5c1,0,1.1,0.6,1.1,1.1c0,0.5-0.2,0.7-0.6,1.2c-0.4,0.6-0.4,0.5-0.8,1.3c-0.3,0.8-0.3,0.9-0.5,1.4
		c-0.2,0.5-0.4,0.8-0.7,1.5c-0.3,0.8-0.6,1.6-0.6,2.5c0,0.8,0.1,1.3,0.6,1.3C196.2,140.3,197.1,139.3,197.4,139.3z M192,131.1
		c-0.4-0.4-0.7-0.6-1.5-0.6c-0.8,0-0.3,0.1-0.9,0.3c-0.6,0.2-0.7,0.6-1,0.9c-0.1,0.3-0.3,0.5-0.5,0.7c-0.2,0.1-0.3,0-0.8,0.6
		c-0.5,0.7-0.7,1.2-1.1,2.5c-0.5,1.3-0.7,2.1-0.7,3.2c0,1,0.2,1.6,0.6,1.6c0.4,0,1-0.4,1.3-0.6c0.2-0.1,0.8-0.2,1.1-0.8
		c0.3-0.6,0.9-1.1,1.3-1.5c0.5-0.3,0.9-1,1.3-1.4c0.5-0.5,1.4-2.8,1.4-3.3C192.5,132.2,192.4,131.6,192,131.1z"/>
	<path class="st0" d="M229.5,120.1c0,0.1,0.1,0.3,0.3,0.5c0.1,0.1,0.3,0.2,0.5,0.2c0.4,0,1-0.5,1.3-0.8c0.5-0.4,0.4-0.6,0.8-1.7
		c0.1-0.4,0.2-0.8,0.2-1.2c0-0.6-0.2-1.1-0.7-1.9c-0.8-1.2-1.7-1.1-2.9-1.2c-0.2,0-0.3-0.1-0.4-0.1c-1,0-1.5,0.5-2.4,0.7
		c-1,0.2-1.9,0-3,0.9c-1.1,0.8-1.3,0.7-2.1,1.5c-0.8,0.9-1.3,1.4-2.3,2.6c-0.9,1.2-0.5,1.4-2,3.1c-1.6,1.7-2.3,5.3-2.7,6.9
		c-0.1,0.6-0.2,1.1-0.2,1.7c0,0.8,0.2,1.6,0.4,2.5c0.3,1.4,1.1,2.5,2.5,3.5c0.9,0.6,1.8,0.8,2.5,0.8c0.5,0,0.9-0.1,1.1-0.2
		c0.6-0.2,0.8-0.1,1.9-0.4c1.1-0.4,1.9-0.9,2-1c0.1-0.1,0.1-0.3,0.1-0.8c0-0.4,0-1,0.1-1.7c0.1-1.3,0.4-1.9,1.3-3.4
		c0.8-1.2,2.6-2.3,4.1-2.3c0.8,0,1.5,0.6,1.5,1.3s-0.5,1.5-0.8,2.4c-0.3,0.8-1.7,2.3-2.2,2.7c-0.3,0.2-0.5,0.7-0.5,1.1
		c0,0.3,0.1,0.7,0.2,1c0.8,1.9,1.1,4.9,1.1,7.1c0,2.4-0.9,5.8-1.6,6.8c-1.7,2.5-3.4,3.4-4.4,3.9c-1.1,0.5-1.3,0.5-2.1,1.1
		c-0.5,0.3-1.9,0.7-3.2,0.7c-0.6,0-1.2-0.1-1.8-0.3c-1.3-0.6-2.9-2-2.9-3.8c0-1,0.8-2.2,1.8-3.3c1.1-1.3,2-1.5,3.3-1.6
		c0.2-0.1,0.4-0.1,0.5-0.1c1,0,1.6,0.4,1.8,0.8c0.2,0.3,0.5,1,0.5,1.5c0,0.2,0,0.4-0.1,0.6c-0.4,0.6-1.4,1.7-2.4,1.7
		c-0.7,0-1.5-0.5-1.5-1.1c0-0.6,0.7-0.9,1.2-0.9c0.5,0,0.7,0.2,0.9,0.2c0.2,0,0.3-0.1,0.3-0.6c0-0.6-0.3-1.2-1.1-1.2
		c-1.3,0-1.7,0.5-2.7,1.7c-0.5,0.7-0.8,1.2-0.8,1.8c0,0.4,0.1,0.9,0.3,1.4c0.5,1.1,2.3,1.6,3.5,1.6c1.1,0,2.6-0.7,3.6-1.3
		c1.1-0.7,0.9-0.6,1.9-2.5c1-1.9,1.5-3,1.6-4.1c0.1-0.8,0.3-1.6,0.3-2.5c0-0.5-0.1-1-0.2-1.4c-0.5-1.5-0.7-2.1-1-3.2
		c-0.1-0.5-0.1-2.1-0.8-2.1c-0.6,0.2-1.6,0.7-3.1,1.3c-0.1,0-0.1,0.1-0.1,0.1c-1,0.3-1.7,0.7-2.8,0.7c-0.5,0-1.1-0.1-1.8-0.2
		c-2.3-0.5-3-0.6-4.9-2.4c-1.3-1.3-1.7-2.7-1.7-4.5c0-0.7,0.1-1.4,0.1-2.2c0.4-2.7,0.5-3.6,1.1-4.9c0.5-1.3,1.1-1.7,2.1-3.4
		c1.1-1.6,1.5-1.7,2.2-2.6c0.6-0.9,1.4-1.6,3.2-3.2c1.7-1.6,4.6-2.6,5.8-2.9c1-0.2,1.4-0.6,4.1-0.8c0.3,0,0.6-0.1,0.9-0.1
		c2,0,3.1,0.4,3.8,1c1,0.8,1.8,1.5,2,2.7c0.1,0.1,0.1,0.3,0.1,0.4c0,0.9-0.5,1.4-0.8,2.2c-0.3,0.9-0.8,1.4-1.2,1.9
		c-0.4,0.4-2.1,1.3-2.9,1.3c-0.9,0-1.5,0-2.1-0.7c-0.3-0.3-0.4-0.6-0.4-0.9c0-0.3,0.1-1.4,0.5-1.8c0.9-0.9,1.1-1.2,2.1-1.2
		c0.4,0,1,0.5,1,0.9c0,0.3-0.2,0.6-0.7,0.7C229.8,119.6,229.5,119.8,229.5,120.1z M228.8,132.4c0.4-0.7,0.9-0.9,1.1-1.8
		c0.1-0.1,0.1-0.2,0.1-0.3c0-0.4-0.2-0.6-0.6-0.6c-0.1,0-0.3,0.1-0.5,0.2c-0.6,0.4-0.8,0.5-1.1,1.4c-0.2,0.6-0.3,1.2-0.3,1.6
		c0,0.2,0.1,0.3,0.1,0.4C227.7,133.3,228.3,133,228.8,132.4z"/>
	<path class="st0" d="M243.1,131c0.2-0.2,0.5-0.2,0.9-0.6c0.3-0.4,0.6-0.5,1.2-0.5c1,0,1.1,0.6,1.1,1.1c0,0.5-0.2,0.7-0.6,1.2
		c-0.4,0.6-0.4,0.5-0.8,1.3c-0.3,0.8-0.3,0.9-0.5,1.4c-0.2,0.5-0.4,0.8-0.7,1.5c-0.3,0.8-0.3,0.9-0.3,1.8c0,0.7-0.2,1.2-0.2,1.8
		c0,0.5,0.2,1.3,0.7,1.5c0.1,0.1,0.2,0.1,0.3,0.1c0.3,0,0.7-0.2,1.1-0.3c0.5-0.1,0.9-0.6,1.4-0.9c0.4-0.4,0.5-0.6,0.8-0.9
		s0.6-0.6,0.8-0.7c0.3-0.1,0.6-0.8,0.9-1.1l1.2-1.5c0.1-0.2,0.5-0.6,0.8-0.6c0.1,0,0.1,0.1,0.1,0.1c0.2,0.1,0.3,0.5,0.3,0.8
		l-1.3,1.6c-0.1,0.1-0.5,0.6-0.8,0.9c-0.3,0.3-0.7,0.9-2.2,2.5c-0.2,0.3-1,0.7-1.3,1c-0.4,0.2-0.9,0.7-1.4,0.8
		c-0.1,0.1-0.3,0.1-0.5,0.1c-0.3,0-0.7-0.1-1-0.1c-0.5-0.1-0.8-0.6-1.1-0.7c-0.2-0.1-0.7-0.1-1.1-0.3c-0.3-0.2-1-1.5-1-2.3
		c0-1.3,0-1.5-0.1-1.5s-1,0.4-1.3,1c-0.4,0.5-0.9,0.8-1.2,1.1c-0.3,0.3-0.7,0.6-1.1,0.8c-0.4,0.1-1.8,0.7-2.6,0.7
		c-0.8,0-1.1-0.3-1.6-0.4c-0.4-0.1-1.4-0.8-1.4-2.7s0.4-2.7,0.9-3.5s0.5-0.7,0.9-1c0.2-0.2,0.2-0.5,0.9-1.4c0.7-1,1.2-1.5,1.6-1.5
		c0.3-0.1,0.3-0.2,0.8-0.5c0.4-0.2,1.5-0.5,2.1-0.9c0.3-0.2,0.3-0.2,1.6-0.2c1.4,0,1.7,0.1,1.8,0.4c0.1,0.2,0.2,0.1,0.7,0.4
		c0.4,0.3,0.4,0.9,0.6,1.4C242.6,131.7,243.1,131.2,243.1,131z M240.6,131.1c-0.4-0.4-0.7-0.6-1.5-0.6c-0.8,0-0.3,0.1-0.9,0.3
		c-0.6,0.2-0.7,0.6-1,0.9c-0.1,0.3-0.3,0.5-0.5,0.7c-0.2,0.1-0.3,0-0.8,0.6c-0.5,0.7-0.7,1.2-1.1,2.5c-0.5,1.3-0.7,2.1-0.7,3.2
		c0,1,0.2,1.6,0.6,1.6c0.4,0,1-0.4,1.3-0.6c0.2-0.1,0.8-0.2,1.1-0.8c0.3-0.6,0.9-1.1,1.3-1.5c0.5-0.3,0.9-1,1.3-1.4
		c0.5-0.5,1.4-2.8,1.4-3.3C241.1,132.2,241,131.6,240.6,131.1z M243,123.3c0.2,0.4,0.3,0.4,0.6,0.7c0.3,0.2,0.2,0.5,0.5,0.6
		c0.3,0.1,0.9,1.3,1.1,1.7c0.1,0.3,0.1,0.6,0.1,0.8c0,0.1-0.4,0.4-0.8,0.4c-0.3,0-0.6-0.3-0.9-0.4c-0.1,0-0.7-0.4-1-0.7
		c-0.1-0.3-0.7-0.6-0.8-1.1c-0.2-0.5-0.5-0.8-0.8-0.8c-0.5,0-0.8,0.4-1.2,0.6c-0.4,0.2-0.8,0.7-1,0.7c-0.3,0.1-0.3,0.3-0.6,0.5
		c-0.3,0.2-0.6,0.3-0.9,0.5c-0.2,0.2-0.7,0.8-0.9,0.8c-0.2,0-0.6-0.2-0.6-0.5c0-0.2,0.7-0.7,1.1-0.9c0.2-0.2,0.8-0.7,1-0.7
		c0.2-0.1,0.4-0.1,0.9-0.6c0.5-0.3,0.8-0.5,1.1-0.7c0.1-0.3,0.3-0.5,0.7-1c0.4-0.3,0.9-0.6,1.1-0.6C242.2,122.8,242.8,123,243,123.3
		z"/>
	<path class="st0" d="M251.2,124.7c-0.7,0-1.1,0.1-1.2,0.1s-0.3-0.1-0.3-0.3c0-0.3,1-1.3,2.8-1.3c0.6,0,1.2,0.5,1.9,0.6l0.9,0.5
		l0.2-0.5c1.5-2.7,2.6-4,3.1-4c0.7,0,1.5,0.8,1.5,1.3c0,0.5-1.1,2.5-1.6,2.9c-0.4,0.3-0.6,0.7-0.8,1c0.7,0.1,1.1,0.1,1.6,0.1
		c0.6,0,1.1-0.2,1.2-0.7c0.2-0.5,0.7-0.8,1-0.8c0.4,0,0.8,0.2,0.8,0.9c0,0.7-1.1,1.3-2.6,1.6c-0.4,0.1-0.4,0.1-2,0.1
		c-0.2,0-0.4,0-0.7-0.1c-0.2,0.4-0.4,1-0.7,1.3c-0.4,0.6-1,2.1-1.2,2.5c-0.2,0.4-0.4,1.5-0.9,2.3c-0.4,0.8-0.5,1.6-0.7,2.3
		c-0.2,0.6-0.4,0.3-0.6,1.2c-0.2,0.8,0,1.4-0.4,2.6c-0.2,0.7-0.3,1-0.3,1.2c0,1,0.1,1.3,0.6,1.3c0.9,0,1.2-0.1,1.4-0.2
		c0.4-0.3,1.2-0.5,1.5-1.1c0.3-0.5,1.1-1.2,1.4-1.5c0.5-0.4,0.9-0.9,1.2-1.3c0.3-0.4,0.8-1.1,1.1-1.1s0.6,0.2,0.6,0.5
		c0,0.1,0,0.2-0.1,0.4c-0.3,0.4-0.6,1-1.1,1.5c-0.5,0.4-0.9,1.3-1.4,1.7c-0.4,0.3-0.9,0.7-1.2,1.1c-0.4,0.4-1.3,1.1-1.7,1.3
		c-0.4,0.3-1.2,0.6-1.7,0.6s-1.4-0.2-2-0.6s-1.5-1.3-1.5-2.3c0-0.1-0.1-0.2-0.1-0.4c0-0.8,0.4-1.7,0.5-2.6c0.1-1,0.4-1.6,0.8-2.3
		c0.4-0.7,0.5-1.6,0.7-2.2c0.2-0.6,0.5-1.5,0.9-2.2c0.4-0.7,1-1.6,1.2-2.2c0.3-0.7,0.2-1.1,1.1-2.5
		C254.5,125.5,252.5,124.7,251.2,124.7z"/>
	<path class="st0" d="M261.8,139.7c0.5,0.8,1,1.1,1.8,1.1c0.7,0,1.2,0,2-0.3c0.7-0.3,1-0.3,1.4-0.5c0.3-0.3,0.6-0.6,1-0.8
		c0.4-0.2,0.8-0.5,1-0.6c0.2-0.1,0.5-0.1,0.6-0.5c0.2-0.4,1.1-1,1.5-1.4c0.4-0.4,0.7-1,1.1-1c0.4,0,0.6,0.4,0.6,0.7
		c0,0.3-0.8,1.1-1.3,1.4c-0.5,0.3-1.4,1.4-1.6,1.6c-0.3,0.2-0.7,0.6-1.1,0.7c-0.4,0.2-1.1,0.8-1.6,1.1c-0.6,0.4-1.2,0.2-1.9,0.4
		c-0.6,0.2-1.4,0.7-2.4,0.7s-2.3-0.6-2.7-0.9c-0.3-0.3-0.7-0.6-1.2-0.9c-0.5-0.3-1.2-2.1-1.2-4.1c0-2.1,0.9-3.4,1.7-4.6
		c0.8-1.1,1.4-1.5,1.8-1.6c0.4-0.1,0.6-0.5,1.4-1.1c0.8-0.6,2-1,3-1c1,0,1.3,0.1,1.6,0.4c0.3,0.2,0.8,0.9,0.8,1.5s-0.8,1.4-0.9,1.4
		c-0.2,0.6-1.1,1.6-1.5,1.9c-0.5,0.3-0.7,0.9-1,1.1c-0.3,0.3-0.8,0.5-1.1,0.7c-0.2,0.2-0.9,0.8-1.4,1.1c-0.5,0.2-0.9,0.8-0.9,1.3
		C261.3,138.3,261.3,139,261.8,139.7z M261.8,135.4c0.3,0,0.6-0.5,0.8-0.7c0.2-0.3,0.5-0.6,0.9-0.9c0.4-0.3,0.6-0.5,0.7-0.7
		c0.1-0.2,0.5-0.5,0.9-0.8c0.3-0.3,0.2-0.6,0.5-1.1c0.2-0.6,0.6-0.9,0.6-1.2c0-0.3-0.1-0.4-0.6-0.4c-0.5,0-1.1,0.8-1.6,1.4
		c-0.5,0.6-1.1,0.8-1.9,2.7c-0.3,0.8-0.4,1.4-0.4,1.5C261.5,135.3,261.6,135.4,261.8,135.4z"/>
	<path class="st0" d="M282.7,131c0.2-0.2,0.5-0.2,0.9-0.6c0.3-0.4,0.6-0.5,1.2-0.5c1,0,1.1,0.6,1.1,1.1c0,0.5-0.2,0.7-0.6,1.2
		c-0.4,0.6-0.4,0.5-0.8,1.3c-0.3,0.8-0.3,0.9-0.5,1.4c-0.2,0.5-0.4,0.8-0.7,1.5c-0.3,0.8-0.3,0.9-0.3,1.8c0,0.7-0.2,1.2-0.2,1.8
		c0,0.5,0.2,1.3,0.7,1.5c0.1,0.1,0.2,0.1,0.3,0.1c0.3,0,0.7-0.2,1.1-0.3c0.5-0.1,0.9-0.6,1.4-0.9c0.4-0.4,0.5-0.6,0.8-0.9
		s0.6-0.6,0.8-0.7c0.3-0.1,0.6-0.8,0.9-1.1l1.2-1.5c0.1-0.2,0.5-0.6,0.8-0.6c0,0,0.1,0.1,0.1,0.1c0.2,0.1,0.3,0.5,0.3,0.8l-1.3,1.6
		c0,0.1-0.5,0.6-0.8,0.9c-0.3,0.3-0.7,0.9-2.2,2.5c-0.2,0.3-1,0.7-1.3,1c-0.4,0.2-0.9,0.7-1.4,0.8c-0.1,0.1-0.3,0.1-0.5,0.1
		c-0.3,0-0.7-0.1-1-0.1c-0.5-0.1-0.8-0.6-1.1-0.7c-0.2-0.1-0.7-0.1-1.1-0.3c-0.3-0.2-1-1.5-1-2.3c0-1.3,0-1.5-0.1-1.5s-1,0.4-1.3,1
		c-0.4,0.5-0.9,0.8-1.2,1.1c-0.3,0.3-0.7,0.6-1.1,0.8c-0.4,0.1-1.8,0.7-2.6,0.7s-1.1-0.3-1.6-0.4c-0.4-0.1-1.4-0.8-1.4-2.7
		s0.4-2.7,0.9-3.5c0.5-0.7,0.5-0.7,0.9-1c0.2-0.2,0.2-0.5,0.9-1.4c0.7-1,1.2-1.5,1.6-1.5c0.3-0.1,0.3-0.2,0.8-0.5
		c0.4-0.2,1.5-0.5,2.1-0.9c0.3-0.2,0.3-0.2,1.6-0.2c1.4,0,1.7,0.1,1.8,0.4c0.1,0.2,0.2,0.1,0.7,0.4c0.4,0.3,0.4,0.9,0.6,1.4
		C282.1,131.7,282.7,131.2,282.7,131z M280.2,131.1c-0.4-0.4-0.7-0.6-1.5-0.6c-0.8,0-0.3,0.1-0.9,0.3c-0.6,0.2-0.7,0.6-1,0.9
		c-0.1,0.3-0.3,0.5-0.5,0.7c-0.2,0.1-0.3,0-0.8,0.6c-0.5,0.7-0.7,1.2-1.1,2.5c-0.5,1.3-0.7,2.1-0.7,3.2c0,1,0.2,1.6,0.6,1.6
		c0.4,0,1-0.4,1.3-0.6c0.2-0.1,0.8-0.2,1.1-0.8c0.3-0.6,0.9-1.1,1.3-1.5c0.5-0.3,0.9-1,1.3-1.4c0.5-0.5,1.4-2.8,1.4-3.3
		C280.7,132.2,280.5,131.6,280.2,131.1z"/>
	<path class="st0" d="M296,127.7c0.4,0,0.7,0.2,0.9,0.7c0,0.2,0.1,0.3,0.1,0.5c0,0.5-0.3,0.9-0.8,1.5c-0.7,0.8-0.4,1.5-1.1,2.5
		c-0.7,1.1-0.7,0.9-1.1,1.7c-0.4,0.8-0.9,1.5-1.3,2.5c-0.4,1-0.8,1.8-0.8,2.5c0,0.7,0.2,0.9,0.6,0.9c0.1,0,0.3-0.1,0.5-0.1
		c0.8-0.3,1.7-1.5,2.2-1.9c0.5-0.5,1.4-0.8,1.9-1.7c0.5-0.9,1.4-1.6,2-2.4c0.4-0.5,1.2-0.7,2.2-2.7c0.3-0.6,1.4-1.1,2.5-1.2
		c0,0,0.2-0.1,0.2-0.1c0.6,0,0.8,0.3,0.8,0.9c0,0.3,0,0.6-0.2,1c-0.4,1.2-0.4,0.9-1,2.3c-0.1,0.4-0.2,0.7-0.2,0.9
		c0,0.2,0.1,0.3,0.1,0.6c0,0.1,0,0.2-0.1,0.5c-0.2,1.1-0.3,1.5-0.3,1.9c0,0.3,0,1.1,0.7,1.2c0.2,0.1,0.4,0.1,0.6,0.1
		c0.5,0,1-0.1,1.3-0.5c0.6-0.4,1-0.2,1.6-1c0.5-0.8,1.2-1.1,1.8-1.7c0.5-0.5,0.5-0.9,1-0.9c0.6,0,0.8,0.2,0.8,0.5
		c0,0.2-0.1,0.4-0.3,0.7c-0.6,0.6-0.8,0.8-1.4,1.2c-0.6,0.5-1,0.9-1.7,1.5c-0.8,0.7-1.5,1.1-2.5,1.5c-0.4,0.1-1,0.2-1.4,0.2
		c-0.5,0-1-0.1-1.3-0.2c-0.6-0.2-1.3-0.5-1.8-1.6c-0.5-1.1-0.2-1.4-0.4-2.1c0-0.1,0-0.2,0-0.5s0-0.8,0-1.5c0,0-1.1,1.3-1.7,1.9
		c-0.6,0.6-1.2,1.6-2,2.1c-0.7,0.5-1.2,1.1-1.8,1.6c-0.6,0.4-1,0.7-2.2,1.2c-0.2,0.1-0.4,0.1-0.7,0.1c-1.1,0-2.8-1-2.8-2.4
		c0-1.7,0.7-3.3,1.6-4.7c0.3-0.4,0.9-1.4,1-2c0-0.5,0.4-1.1,1-2.2c0.7-1.2,0.7-1.7,1.2-2.4c0.6-0.7,0.9-0.5,1.7-0.9
		C295.6,127.8,295.9,127.7,296,127.7z"/>
	<path class="st0" d="M325.4,140.2c-0.8,0.5-1.8,1-2.5,1.1c-0.2,0.1-0.5,0.1-0.7,0.1c-0.4,0-0.9-0.1-1.4-0.3c-0.7-0.4-1.5-0.5-2.3-1
		c-0.7-0.6-0.6-0.4-1.5-1.7c-0.4,0.4-0.8,0.7-1.1,1.1c-0.6,0.8-0.6,1.2-1.2,2c-0.6,0.9-0.7,1.3-1.2,2c-0.3,0.4-0.8,0.6-1.1,0.6
		c-0.3,0-0.7-0.1-0.7-0.6c0-0.1,0-0.1,0-0.2c0-0.6,0.7-0.8,1.4-1.8c0.1-0.2,0.2-0.4,0.4-0.5c0.3-0.4,0.4-1,0.7-1.3
		c0.4-0.9,0.9-0.8,2-2.6c-0.3-0.6-0.6-1.2-0.6-1.7c0-0.9-0.3-1.7-0.3-2.5c0-0.8-0.1-1-0.4-1c-0.4,0-0.9,1-1.5,1.9
		c-0.7,1-0.6,0.6-1,1.2c-0.4,0.7-0.7,1-1.2,1.6c-0.5,0.6-0.8,1.2-1.1,1.2c-0.1,0-0.2-0.1-0.3-0.1c-0.2-0.2-0.2-0.5-0.2-0.7
		c0-0.3,0.2-0.7,0.4-0.9c0.3-0.5,0.6-1,0.9-1.1c0.3-0.2,0.6-0.9,1-1.3c0.3-0.5,0.7-0.8,1.2-1.4c0.5-0.6,1-0.9,1.1-1.5
		c0.1-0.6,1-0.8,1.8-1.2c0.4-0.2,0.7-0.3,1-0.3c0.2,0,0.5,0.1,0.9,0.3c0.7,0.4,1.2,1.1,1.2,1.7c0,0.8,0.1,1.8,0.4,2.5
		c0.6-0.8,1.1-1.4,1.6-1.9c0.8-0.8,1-1.2,1.3-1.8c0.4-0.5,0.8-0.8,1.3-1.4c0.4-0.4,0.8-0.7,1.1-0.7c0.1,0,0.2,0,0.2,0.1
		c0.3,0.1,0.5,0.3,0.5,0.6c0,0.2-0.1,0.4-0.3,0.7c-0.4,0.6-0.8,1.1-1.4,1.2c-0.7,0.2-1,1.3-1.9,2.3c-1,1-1.3,1.5-1.5,1.8l-0.6,0.7
		c0,0,0.2,0.9,0.4,1.2c0.3,0.7,1,1.6,1.3,2.1c0.3,0.4,1.2,1,1.7,1c0.4,0,1.4-0.2,2-0.6c1.1-0.6,1.7-1.4,2.3-1.4
		c0.3,0,0.6,0.4,0.6,0.8s-0.6,0.8-1.1,1C326.2,139.5,326.1,139.7,325.4,140.2z"/>
</g>
</svg>
